<svg id="Layer_1" data-name="Layer 1" xmlns="http://www.w3.org/2000/svg" viewBox="0 0 356 499.12"><defs><style>.cls-1{fill:#fff;}.cls-2,.cls-4{fill:#f2d348;}.cls-2{fill-rule:evenodd;}.cls-3{fill:#0c2674;}.cls-5{fill:#fe8c07;}</style></defs><path class="cls-1" d="M650.6,411.29C650.6,500.12,578.35,572,489.87,572S329.08,500.12,329.08,411.29s72.37-160.85,160.86-160.85,160.66,72,160.66,160.85" transform="translate(-322 -250.44)"/><path class="cls-2" d="M650.6,411.29C650.6,500.13,578.35,572,489.87,572S329.08,500.13,329.08,411.29s72.36-160.85,160.86-160.85,160.66,72,160.66,160.85M489.94,259.8c-83.35,0-151.55,67.83-151.55,151.53s68.14,151.43,151.5,151.43S641.31,495,641.31,411.33s-68-151.53-151.37-151.53" transform="translate(-322 -250.44)"/><path class="cls-3" d="M517.56,408.51c16.34,19.37,6,45.33,11.12,56.95-.45-16.7,14.75-39-11.12-56.95" transform="translate(-322 -250.44)"/><path class="cls-3" d="M560.89,444.69c-2-2.94-3.48-9.9-12.22-13-3.95-1.41-12.3-7.9-16.48-11a26.17,26.17,0,0,1,2.47,3.42c9.21,14.7,1.18,28.76,6.41,39.57,1.35-.71,3.84-13.31,2.93-22.82,12.37,20.25-6.22,31,15.47,48.43-12.41-16.13,2.52-34.14-16.76-56.93,6.54,5.15,12.13,15.11,13,16.62a79.43,79.43,0,0,0,27-4.25,36.93,36.93,0,0,0,20.1-15.54,22.21,22.21,0,0,0,2.55-5c-2.31,1.89-3.7-.25-5-.69-1.05-.35.11-2.78,1-3.09a5.91,5.91,0,0,1,5.32.73A54.25,54.25,0,0,0,609,407.56c-.83-1.67-4.2-.71-4.48-3s3.8-3.46,3.5-4.52a26.35,26.35,0,0,0-3.37-7.08c.8,3.06-3.57,5.84-5,5.41,2,3.63,1.82,8.13,1.67,11,5.27,1,7.47,4.23,5.5,5.93-1.41.83-3.52-2.33-6.55.55a25.08,25.08,0,0,1-6,10.56c1.11-.65,5.34,1.77,4,4.19s-4.17,4.42-5.59,5.48c.17-.7,1.07-5.48-2.44-6.29a31.58,31.58,0,0,1-6.7,3.4c1.48,1.48,2.89,4.36,2.38,6.66a45.47,45.47,0,0,1-9.62,3.26s-.75-4.67-3.6-7.65c-4.11.52-10.48-.55-10.48-.55s6.78,2.92,7.47,9.36c-1.81.26-8.69.63-8.82.39" transform="translate(-322 -250.44)"/><path class="cls-3" d="M588.45,386.11a15.12,15.12,0,0,0-10.4,7.69,17.87,17.87,0,0,0-2.27,5.35c-.45,3.29,2.36,4.2,3.85,1.61.56-1,1.1-2.13,2-3.59a11.36,11.36,0,0,1,6.2-4.77c-1-1.42-1.54-4.59.64-6.29" transform="translate(-322 -250.44)"/><path class="cls-3" d="M601.63,389.58c-3.77-3.32-7-3.82-9-3.83-3.79,1.48-1.47,6.4-1.47,6.4a11,11,0,0,1,6.72,3.64c2.24-1.27,4.21-4.16,3.78-6.21" transform="translate(-322 -250.44)"/><path class="cls-3" d="M571.15,499.51c-9.7-16.82-4-24.58-11.74-41,2.39,6.93-5.42,29,11.74,41" transform="translate(-322 -250.44)"/><path class="cls-3" d="M466.37,342.86a9.47,9.47,0,0,1,2.33,3.73c1.12-2.67,4.59-14.73-6.68-17.13,4.62,4.35,4.28,7.41,4.28,7.41a14,14,0,0,0-3.2-1c1.41,4.31.46,10.08-3.15,16.57,2.29-1.9,5.85-5.08,6.42-9.6" transform="translate(-322 -250.44)"/><path class="cls-3" d="M432.16,315.73c-1-2-1.91-7.16,3.38-9.83-12.71,1.05-3.82,9.41-3.38,9.83" transform="translate(-322 -250.44)"/><path class="cls-3" d="M442.83,306.53c5.33,2.33,6.85,8.21,5.72,10.48,1.62-.71,7.23-8.43-5.72-10.48" transform="translate(-322 -250.44)"/><path class="cls-3" d="M432.42,320.35c-7.46,3.85-11.41-2.51-18.36.46a7.87,7.87,0,0,1,8.05-3.93c1.47.23,2,1.6,4.78,2.17s3.23-.67,5.26,0a13.59,13.59,0,0,1-2.74-4.75,4.39,4.39,0,0,0-5.44.3s-3.56,2.32-5.26-.3c-.55-.87-1.44-3.86,5.9-7-16,2.25-9.51,7.79-9.51,7.79s-8.24,2-9.67,13.42c7.05-11.63,22-.23,27-8.16" transform="translate(-322 -250.44)"/><path class="cls-3" d="M456.81,317.84c-2.27-3-4.84-2.28-5.6-1.44a10.81,10.81,0,0,1-1.76,4.17c1.65-.5,3.1,1.45,5.88-.08,2.85-1.31,7.77.08,9.9,4.31-4.63-4.37-8.31,1.68-15.38-3.45,5.66,5.83,9.92,4.53,13.2,4.85,2,.19,4.43.66,7,5.67-.62-11.46-4.84-12.64-9.51-13.27,4.67-3.25,2-8.62-8.25-9.88,2.58.83,6,3.65,6.78,6.17.62,2.06-.73,4.18-2.23,2.95" transform="translate(-322 -250.44)"/><path class="cls-3" d="M423.34,392.47c0-3.81,4.88-15.12,13.17-18.27,2.57.37,7.29,2.6,10.8-6.55-4.65,4-15.8,3.15-16.38-2.79-5.76-14.46-13-9.58-13-20.3-1.84,0-2.81,1.68-3.57,3a14.43,14.43,0,0,1-.12-12.07,11.28,11.28,0,0,0-5.3,3.39c.35-4.58,4.06-9.53,9.13-12.65-15.39,2.55-16.82,13.86-16.36,16.38a8.58,8.58,0,0,1,3.82-3.12c-.94,7.92,3.19,17.33,9,22.08a16,16,0,0,1-7.22-4.22c-6.12,19.26-4.2,35,3.64,43.22,5.41,7.19,14,19,16.73,23.36,4.36-11.46,3.58-28.38,11.42-37.93-13.05,7-10.73,19.46-14.89,24.59-1.55-2.11-18.64-17.3-15-37.14,6,12.3,11.85,17.13,14.08,19.05M418,364c3.61,3,5.93,5.79,6.78,8.48-1.15,1.67-2.27,5.36-3.4,10.43-.84-.85-5.64-8.76-3.38-18.91" transform="translate(-322 -250.44)"/><path class="cls-3" d="M438.35,325.36c-.08,0-1.26.08-1.26.08s1.36,1.55,3.38,3.7,4,2.69,4.28,3.71a10.87,10.87,0,0,1,.13,5.11c-1.9.13-4,.35-5.61.42-.24,3-.08,5.57-.35,7.14s-.55.84-1.05-.1-1.91-5.62-2.51-7a6.77,6.77,0,0,1-3.73-1.3,35.08,35.08,0,0,1,6.53-2.88c-9.18.26-13.71,2.52-13.71,2.52s.51-1.42,5.36-3a13.4,13.4,0,0,1-.2-2.4c2.29-.5,6.51-.21,8.22-.19a32,32,0,0,0-11.37-.84,8.82,8.82,0,0,1,3.35-1.4,5.11,5.11,0,0,1,4-4.25c-7.52-.67-10.33,4.31-9.78,9.08,0,0-8,4.89,1.62,16.33-.72-3.39.35-8.27,4.62-8.13-.85,1.06-1.16,4.22-1.42,7.06-.45,4.49,2.42,13.54,5,12.87a8.18,8.18,0,0,1,2.23-.91c.11-1.71.36-4.5.54-5.83s.56-.59.73-.13c.46,1.25,1.15,3.73,1.64,5.24a16.23,16.23,0,0,1,1.7-.1,14.84,14.84,0,0,1,4.75.61c.27-.86,1.16-3.39,1.64-4.82.32-.95.67-1.5.86,0a37.63,37.63,0,0,1,.17,5.59c.21-.14,3.05,1.87,2.74-2.57a43,43,0,0,1,1.05-8.28c1.27-4,1.06-4,2.95-7.59A8.29,8.29,0,0,0,459,333a17,17,0,0,1-1.24,3.41,42.94,42.94,0,0,0-8.15-1.41c1.84.57,7.23,2.9,7.23,2.9s-1.35,2.54-3.76,1.7a68.42,68.42,0,0,1-3,6.55c-.64,1.28-1,1.3-1,.35.05-1.71.34-4.34.61-7.6a18.23,18.23,0,0,0-3.14-.89,18,18,0,0,0,.34-4.67c0-1.41,2.93-3.32,5.14-6.62a2.6,2.6,0,0,0-1.75-1.72c-1.45-.5-1.9-.3-3.6.21s-2.95-.66-4.52-1c-1.35-.33-3.35.87-3.88,1.22" transform="translate(-322 -250.44)"/><path class="cls-3" d="M459,330.87s-5.09-2.32-8.48,0a47.94,47.94,0,0,0,8.48,0" transform="translate(-322 -250.44)"/><path class="cls-3" d="M435.33,316.05a6.53,6.53,0,0,1,3.52-5.22c-6.07.28-4.79,3.95-3.52,5.22" transform="translate(-322 -250.44)"/><path class="cls-3" d="M442.94,311.26a7.67,7.67,0,0,1,3,5.2c1.55-1.26,1-5.2-3-5.2" transform="translate(-322 -250.44)"/><path class="cls-3" d="M489.92,277a133.55,133.55,0,0,0-75.31,23.17c-.41.27-1.18.93-1.82,1.34.9.64,1.76,1.14,2.56,1.62,1,.61,2.09,1.19,3.31,1.83,3-2,11.37-2.69,19.41-1.42,11.66-.78,17,3.88,17,3.88,1.7-.15,5.83-1.76,8.83-2.84,3.27-1.15,4.47,1.95,3.87,10.88a31.65,31.65,0,0,1,2.46,2.67,30.94,30.94,0,0,1,12.41-8c2.14,23.24,1.94,71,1.94,73.15-.45-.46-.86-.93-1.34-1.41-.76-1.06-3.62-3.73-5-6.09-3.68-6.23-5.8-11-12.16-13.59,5.31,6.88,5.16,11.63,5.3,15.06.14,2.56.29,5.66.64,7.9.92,6.25,3.4,8.22,6.48,13.6.46-11.85-4.63-18-3.08-21.84,12.68,12.35,6.76,27.22,15.15,39.88,10.25,15.53,7.83,30.65,14.3,42.11-2.25-13,4.52-35.56,3.4-46.85,10.68,9,2.41,40.74,10.21,52.81.51-24.92,10.67-47.22-16.08-66.85-2.18-13.39-6.26-55,.5-88.3,4.95,4.66,10,13.76,13.05,19.82,2-2.72,5.44-7.83,6.84-13.34,1.59,8-.69,17.22-2.91,21.35,1.55,3.4,3.35,7.45,8,18.87,2.2-2.09,4.82-4.73,6.31-11.42.93,5.74-.73,13.29-3.11,20.59,1.7,4.66,5.51,15.47,7,20.85,2.89-7,7.64-39.4.65-54.85a29.74,29.74,0,0,1-3.31,10.94c0-25-11.63-39.59-22.52-48.34a25.62,25.62,0,0,1,1.58,13.62c-2-7.68-5.55-16.14-12.44-23.22,20.75,7.42,31.19,24.67,34.35,29.94a83.07,83.07,0,0,1,12.08,11.84c1.37-2.76,2.91-9.69,2-16,3.91,8.91,4.3,19.14,4.33,23.69,2.45,3.28,4,5.22,6.55,9a27.3,27.3,0,0,0,2.54-11.5c3.35,8.37,2.62,13.54,1.74,18.24,4.76,8.27,6.42,11.29,10.6,19.52,2.79-19.68-1.93-40.26-10.1-49.61,1.31,3.39.15,7.33-.53,9.32-4.44-19.85-20.6-32.16-35.06-39.29,51,16.58,88,63.62,88,119,0,39.78-19.06,75.2-48.68,98.15-4.15-5.45-24.4-14-33.26-35-2.15,21.12,16.44,26.88,20.52,34.31-6.36-2.85-17.41-10-22.46-15.72-6.51-5.38-9.71-18.54-9.86-24.15a24.32,24.32,0,0,0,.26,17.48s-14.18-5.3-19.25-10.24c1.22,3.95,3.47,7,3.72,9.95-3.88-4-9.73-2.7-18.5-10.92-.62-.54-4.82-6-4.82-6l.37,8.25s-4.4-4-7.8-4.27c.6-2.13,3-6.23,4.77-9.77,4.32-9.79,12.71-12.31,8.52-29.59-.66,9.19-3.91,13.24-7.44,17-2.14-3.63-.94-13.5-.63-20.94s-2.91-16.82-9.74-27.1c2.38,10.21,6.56,18,3.4,27.1,0,14,1.59,15.66,2.95,23.26-2,7.36-9.59,20.62-9.59,20.62-3-6.45-11.16-26.17-25.34-10,13.28-5.7,22.25,12.51,22.39,14.79-5.36,9.72-10.73,12.89-13.06,17.12-1.7-10.14-9.47-25.24-13.64-23.31s-10,6.47-10.48,9.66c3.11-1.45,8.85-3.84,11.31-.93,1.78,2.73,8.15,9.78,9.86,18.74-4.68,6.63-8.18,14.09-7.86,18.71a20.52,20.52,0,0,0-12,9.15,6.46,6.46,0,0,1-2.8,2.35c-2.69.46-5,.46-10.24.49-.25.08,1.71-7-1.92-8.46-2.9-1.13-6.42.56-6.9,4.54-4-1.47-3.35-6.42-3.35-6.42-3.34-.81-6.08,1.42-7.92,4.74-.63-2,.06-4.5.75-6.74-8-1.27-9.18,6.54-9.06,9-3-5.47-.14-18.76,10.47-12,4-6.75,9.81-2.56,10.82-2.16,1.28-1.59,5-5.46,6.77-9.21,1.15-7.92,6-17.5,8.49-25.13-.86-4.23,2.21-11.22,2.24-11.28,13.33-28.07,38.69-16.1,37.2-44.42-3.83,18.68-19.36,8.73-33.85,33.47,8-31.38,24.11-27.6,29.41-38.45,3.38-6.89,4.74-15.46-1.23-31.48,4,27.24-20.76,40-23,50.4-5.35-17.75,24.09-32.55,15.24-60.95,2.51,16.75-25.72,43-21.56,70.79-3.6-13.77-27.11-26.27-29.65-44.91-2.83,33.31,18.72,22.18,23.51,48.51-3.39-9.1-14.47-12-22.66-23.54,5.7,25.4,20.76,17.6,23.21,36.12.24,1.9-1.19,4.26-2,7.07-1.64-6-6.56-12.29-8.39-13.56-8.44-6-17.29-17.25-19.75-34.71-1.21-8.44-1-25.81,2.11-31.74-1.23-10.58,2.76-22.22,5.51-32.82,1.92-6.34-3.7-9-6.45-3-.74-1.58-4.42-14.88,3.76-22.64.07-.14-2.66-1.41-6.06.55-.28-2.57,1.28-5.72,3.33-8.61l.16-.16a.35.35,0,0,1,.05-.13,48.14,48.14,0,0,1,7-7.65c-.57-1.78-2.37-8.91-.42-13.2-2.83,1.13-2.93,6.67-2.76,9.76a134,134,0,0,0-6,197.71c-6.12.77-14.88,6.58-6.12,25.55a25.17,25.17,0,0,1,1.4-4.4c.14-.35.73-.24.85.18a18.13,18.13,0,0,0,3.45,6.38,13.7,13.7,0,0,1,2.77-4.92.69.69,0,0,1,1.2,0A15,15,0,0,0,404.5,536s.61-2.8,1.61-3.59c.49-.27,1.82,0,3.66.06,1.65,0,3.5-.13,3.68.37a14.4,14.4,0,0,0,2.39,3.8,33.09,33.09,0,0,1,1.53-3.63,1.1,1.1,0,0,1,1-.62c7.1-.15,10.64-.34,12.38-.5a133.5,133.5,0,0,0,59.12,13.74c73.87,0,134.21-60.05,134.21-134.23S563.81,277,489.92,277m6.38,64.7a267.45,267.45,0,0,0,1,40.21s-4.93-15.37-9.75-19.2c3-1.82,6.62-3.66,6.62-3.66s-3.52-3.52-6.89-3.8c2-2.27,7.05-5.07,7.05-5.07s-4.24-2.55-6.78-3.68a23.19,23.19,0,0,1,8.77-4.8M448.66,299s4.07-14.86,22.64-12.31C459.85,289.87,448.66,299,448.66,299m23.48,1.21s-1.4-13,15.53-15.81c-6.2,4.52-15.53,15.81-15.53,15.81m28.69,121.31c-6.42-7.17-3.35-21.94-14.5-36.15,3.38,3.67,9.18,9.15,11.41,11.13,5.69,9.42,6.82,12,3.09,25M361.37,408.79a121.83,121.83,0,0,1,14.44-57.66c-19.19,66.06,3.05,108.68,38.55,142.93,0,0-1.74,7.19-5.8,11.67-28.77-23-47.19-57.85-47.19-96.94m35.12,118.27a15.5,15.5,0,0,0-1.36,4.2,19.18,19.18,0,0,1-1.54-5.5c-.3-2.82.83-4.08,1.82-4.27s4.27.18,1.08,5.57m9.25-.12a13.77,13.77,0,0,0-1.6,5.54,10.2,10.2,0,0,1-2-3.75c-.86-2.54-1.08-4.79.12-6.24,1.62-2,5.93.19,3.51,4.45m9.68,6c-5.9-8.77-.87-10.78.42-10,2.41,1.56-.68,4.58-.42,10m43.41-5.51c-5.09.21-7-.22-10.59,0A76.94,76.94,0,0,1,456.07,502s4.26-8.36,5.95-10.31c1.38,4,2.24,14,5.05,21.88-4.5,4-4.72,12.63-8.24,13.89m31.8-41.84c1.26.57,10.45,7.49,17.11,10.77-4.83,2.51-5.92,5.5-5.92,5.5s-11.75-3.7-11.19-16.27m62.92,32.07A129.79,129.79,0,0,1,524.7,529.5c2-3.07,5.84-8.77,7.84-10.79,2.83-2.82,4.59-6.07,3.14-9-1.3-2.62-2.35-2.72-2.35-2.72a8.13,8.13,0,0,1-.52,6c-1.26,2.36-6.23,5.77-10.91,9.94-4,3.61-4.43,6.89-4.43,6.89s-11.46,1.53-13.13,1.34c-1.38-2-4.25-4.54-7.28,1.5-1.76-1.24-1.33-7.15-1.33-7.15s-3.56,3.89-4.6,6.52c-1.06-3.71-1.9-6.67-1.9-6.67s-2.46,3.51-2.55,6.46c-5-6.13-1.12-17.88,4.75-12.81,4.3-5.93,8.79-.22,8.79-.22s4.54-4.35,8.91,4.88c1.12-4.16-2.27-7.75-2.27-7.75a50.48,50.48,0,0,1,4.14-5.79c2-2.27.12-4.61-1.28-5.47a30.47,30.47,0,0,0-5.58-1.84s4.82-2.92,8.24-3.22c3.58,1.06,12.64.75,15-.62-1.51-1.76-.16-3.54.73-4.17a37.38,37.38,0,0,0,3.36,3.07c1.09.86,7.34,6.24,10.7,8.2s7.9,3.09,9.6,4.8c1.37,1.35,3,4.19,1.8,6.89" transform="translate(-322 -250.44)"/><path class="cls-3" d="M529.39,502.11a55.33,55.33,0,0,1-10.23,2.53c-4.25.43-4.88,2.32-5.74,3.38,6.79-.64,13.14-.22,14.61-.86s4-1.47,4-1.47l-.82-1.18c-.63-.76-1.24-1.56-1.85-2.4" transform="translate(-322 -250.44)"/><path class="cls-1" d="M470,317.74c-.46-.52-1.3-1.44-2.14-2.26.59-8.34-.45-11.59-3.26-11a16.08,16.08,0,0,1,1,10.22,16.09,16.09,0,0,0-6.7-4.2c4.59,2.19,5.16,5.73,1.72,8.13,4.67.63,8.9,1.81,9.54,13.26,0,0,0,0,0-.06a34.1,34.1,0,0,1-1.35,14.79,9.23,9.23,0,0,0-2.32-3.73c-.48,4-3.41,7-5.67,8.95a14.62,14.62,0,0,1-4.38,4.12c10-14.95,6.11-31.66-4.22-29.33,0,0,0,.07,0,.07-2.21,3.3-5.12,5.21-5.12,6.61a17.38,17.38,0,0,1-.37,4.69,16.32,16.32,0,0,1,3.15.88c-.27,3.26-.56,5.88-.61,7.6,0,.95.35.93,1-.35a68.59,68.59,0,0,0,3-6.55c2.46.84,3.78-1.69,3.78-1.69s-5.4-2.34-7.23-2.91a41.89,41.89,0,0,1,8.15,1.41,17.07,17.07,0,0,0,1.22-3.41,8.28,8.28,0,0,1-4.1,10.2c-1.91,3.6-1.7,3.61-3,7.59a43.89,43.89,0,0,0-1.06,8.28c.34,4.44-2.51,2.43-2.72,2.57A34,34,0,0,0,448,356c-.18-1.49-.53-.94-.84,0-.48,1.44-1.38,4-1.63,4.83a14.79,14.79,0,0,0-4.75-.61,16.44,16.44,0,0,0-1.71.1c-.5-1.52-1.18-4-1.64-5.24-.19-.46-.56-1.18-.73.13s-.43,4.13-.53,5.83a8.47,8.47,0,0,0-2.27.91c-1,.27-2-.91-2.85-2.69a26.47,26.47,0,0,1-.08,5.56.43.43,0,0,1,0,.05c.58,5.94,11.71,6.79,16.37,2.79-3.52,9.15-8.21,6.92-10.78,6.55-8.31,3.15-13.2,14.46-13.2,18.27-2.22-1.92-8-6.74-14.05-19.06-3.66,19.85,13.41,35,15,37.15,4.16-5.12,1.83-17.54,14.9-24.59-7.86,9.55-7.08,26.47-11.44,37.94-2.77-4.32-11.32-16.18-16.74-23.38-4.63-4.86-7.15-12.36-7.2-21.61a45.4,45.4,0,0,0-1.72,20.85c0-.12,0-.22,0-.34,2.56,18.65,26.06,31.15,29.66,44.93-4.16-27.83,24.08-54.05,21.55-70.8,8.85,28.41-20.59,43.2-15.25,60.94,2.28-10.37,27.1-23.14,23.05-50.39a.13.13,0,0,0,0,.09,21.82,21.82,0,0,0-1.43-4.94c3.09,2.31,5,5.74,6.71,8.6.71-10-6.19-22.27-5-30.13a6.77,6.77,0,0,1,.29-3.83c1.16-2.54,6.87-2.39,6.33,2.58,10-12.41,3.72-22.94,3.72-22.94a9.53,9.53,0,0,1,3.77,1.23,32.77,32.77,0,0,0-5.61-17M450.6,330.87c3.4-2.32,8.46,0,8.46,0a47.79,47.79,0,0,1-8.46,0" transform="translate(-322 -250.44)"/><path class="cls-1" d="M429.62,465c0,.06-3.11,7.05-2.26,11.28-2.5,7.63-7.35,17.21-8.47,25.13-1.82,3.75-5.48,7.62-6.79,9.21-1-.4-6.77-4.59-10.81,2.16-10.6-6.8-13.44,6.49-10.47,12-.12-2.48,1.08-10.3,9.07-9-.72,2.24-1.34,4.71-.74,6.69,1.58-8.08,6.2-11.75,12.65-6,4.94-5.21,10.21,1,10.21,1a8.61,8.61,0,0,0-4.3-5.3c5.25-12.58,10.8-23.89,14.72-33.25l-1.5.67c.2-1.41,1.45-3,3.1-4.61,3.62-9.25,5.05-16.2,2.16-20A42.28,42.28,0,0,0,429.62,465" transform="translate(-322 -250.44)"/><path class="cls-1" d="M525.11,483.9a23.34,23.34,0,0,1-1.77-8.41c-13.62-4.11-21.75-14.28-21.77-14.15,0,.53.24,4.7,4.24,10.45-3.66-1.14-6.75-4-10.72-9.11-.28,3.1-1.12,4.31.56,8.53-2.54-.27-4.21-.56-8.73-4.22v.52c1.19,1.53,3.71,4.77,4.15,5.18,8.77,8.22,14.63,7,18.51,10.92-.23-2.94-2.52-6-3.74-9.95,5.09,4.94,19.27,10.24,19.27,10.24" transform="translate(-322 -250.44)"/><path class="cls-1" d="M450,321.4c7,5,10.66-.95,15.31,3.4-2.12-4.23-7.09-5.62-9.93-4.31-2.77,1.53-4.23-.42-5.89.08a10.43,10.43,0,0,0,1.79-4.16c.77-.85,3.32-1.56,5.6,1.43,1.49,1.23,2.82-.89,2.2-2.95a1.89,1.89,0,0,0-.1-.35,8,8,0,0,0-8-3.66c1.06,2.73-1.36,5.71-2.32,6.13v0a12.29,12.29,0,0,1-1.16,1.08A9.71,9.71,0,0,0,450,321.4" transform="translate(-322 -250.44)"/><path class="cls-1" d="M432.46,320.35c0,.06-.09.11-.11.16a7.89,7.89,0,0,0,1.9-3.05,17.9,17.9,0,0,1-2.06-1.76v0c-.27-.25-4-3.74-3.34-6.51-4.5-1.72-13.05,2-9.6,5.62,1.81,1.62,4.78-.28,4.78-.28s2.14-2.21,5.42-.3a13.74,13.74,0,0,0,2.74,4.75c-2-.63-2.37.63-5.26,0s-3.31-1.94-4.78-2.17a7.9,7.9,0,0,0-8.06,3.93c7-3,10.9,3.39,18.37-.46" transform="translate(-322 -250.44)"/><path class="cls-1" d="M429.88,329a8.77,8.77,0,0,0-3.38,1.39,32.09,32.09,0,0,1,11.38.85c-1.73,0-5.94-.31-8.21.19a9.89,9.89,0,0,0,.21,2.4c-4.89,1.56-5.36,3-5.36,3s4.51-2.26,13.67-2.52a35.13,35.13,0,0,0-6.54,2.88,6.92,6.92,0,0,0,3.75,1.3c.61,1.35,2,6,2.52,7s.78,1.69,1.06.1.09-4.11.32-7.13c1.63-.08,3.69-.3,5.64-.43a11.45,11.45,0,0,0-.15-5.11c-.25-1-2.24-1.58-4.29-3.71-1.62-1.73-2.79-3.06-3.2-3.51a8.53,8.53,0,0,0-3.51-.85,5,5,0,0,0-3.91,4.2" transform="translate(-322 -250.44)"/><path class="cls-1" d="M418,364c-2.27,10.15,2.54,18.06,3.38,18.91,1.13-5.07,2.26-8.76,3.37-10.43-.83-2.69-3.16-5.44-6.75-8.48" transform="translate(-322 -250.44)"/><path class="cls-4" d="M448.66,299s11.19-9.15,22.64-12.31C452.73,284.17,448.66,299,448.66,299" transform="translate(-322 -250.44)"/><path class="cls-4" d="M487.53,346.53c2.54,1.13,6.78,3.68,6.78,3.68s-5.09,2.8-7.05,5.07c3.37.28,6.89,3.8,6.89,3.8s-3.65,1.84-6.62,3.66c4.81,3.83,9.75,19.2,9.75,19.2a269.78,269.78,0,0,1-1-40.21,23.24,23.24,0,0,0-8.76,4.8" transform="translate(-322 -250.44)"/><path class="cls-4" d="M512.93,294.17c10.9,8.76,22.5,23.35,22.5,48.35a29.3,29.3,0,0,0,3.33-10.95c.14.31.29.65.42,1a.36.36,0,0,1,0-.14c.1.35.23.69.31,1.07,5.81,15.87,1.49,45.6-1.35,52.73a88.93,88.93,0,0,0,4.73-56.11,62.68,62.68,0,0,0-6.17-15.37,2,2,0,0,0-.29-.22c-3.17-5.27-13.61-22.52-34.35-29.94,6.88,7.08,10.44,15.54,12.43,23.22a25.62,25.62,0,0,0-1.58-13.62" transform="translate(-322 -250.44)"/><path class="cls-4" d="M538.09,386.4a.5.5,0,0,1,0-.13c-.08.26-.13.4-.13.4a2.24,2.24,0,0,0,.16-.27" transform="translate(-322 -250.44)"/><path class="cls-4" d="M565.58,329c.69-2,1.84-5.93.53-9.32,7.71,8.81,12.31,27.56,10.5,46.14,6.3-39.23-10.28-58.47-27.75-68.55a127.16,127.16,0,0,0-18.35-7.56C545,296.88,561.14,309.2,565.58,329" transform="translate(-322 -250.44)"/><path class="cls-4" d="M487.68,284.43c-16.94,2.83-15.54,15.81-15.54,15.81s9.33-11.29,15.54-15.81" transform="translate(-322 -250.44)"/><path class="cls-4" d="M601.45,420.4c-.87.31-2.06,2.75-1,3.09,1.26.44,2.65,2.58,5,.7a.33.33,0,0,0,0,.14,27.32,27.32,0,0,0,1.33-3.25,5.94,5.94,0,0,0-5.26-.68" transform="translate(-322 -250.44)"/><path class="cls-4" d="M608.05,400.08c.27,1.06-3.76,2.24-3.5,4.52s3.65,1.29,4.49,3c0,.42,0,.82,0,1.26,0-.17,0-.32,0-.5a24,24,0,0,0-1-8.24" transform="translate(-322 -250.44)"/><path class="cls-4" d="M527.15,498.68c-.11-.2-.21-.4-.32-.59a4.94,4.94,0,0,0,.32.59" transform="translate(-322 -250.44)"/><path class="cls-4" d="M591.18,392.15h0s-2.3-4.9,1.45-6.39a16.41,16.41,0,0,0-4.16.38c-2.14,1.72-1.57,4.84-.63,6.24a9.51,9.51,0,0,1,3.39-.23" transform="translate(-322 -250.44)"/><path class="cls-4" d="M452.06,497.34c-1.72-8.95-8.08-16-9.84-18.72-2.14-2.48-6.61-1.09-9.81.25-3.92,9.36-9.5,20.67-14.74,33.25a8.73,8.73,0,0,1,4.32,5.3s-5.3-6.22-10.22-1c-6.44-5.76-11.08-2.09-12.68,6v.05c1.85-3.33,4.59-5.56,7.93-4.75,0,0-.67,4.95,3.34,6.44.49-4,4-5.68,6.91-4.55,3.62,1.4,1.66,8.54,1.9,8.46,5.24,0,7.56,0,10.25-.49a6.49,6.49,0,0,0,2.81-2.36,20.49,20.49,0,0,1,12-9.14c-.34-4.62,3.18-12.08,7.85-18.72" transform="translate(-322 -250.44)"/><path class="cls-4" d="M531.25,504.51l.81,1.18s-2.55.84-4,1.48-7.82.21-14.61.85c.85-1.06,1.48-2.95,5.73-3.38a54.45,54.45,0,0,0,10.23-2.53,34.12,34.12,0,0,1-2.09-3.18c-2.36,1.37-11.32,1.68-14.92.61-3.41.29-8.23,3.22-8.23,3.22a30.22,30.22,0,0,1,5.58,1.84c1.4.87,3.28,3.2,1.28,5.48a49.19,49.19,0,0,0-4.13,5.78s3.38,3.59,2.27,7.75c-4.4-9.23-8.92-4.87-8.92-4.87s-4.49-5.72-8.78.21c-5.88-5.07-9.74,6.68-4.76,12.81.09-3,2.54-6.46,2.54-6.46l1.91,6.67c1-2.63,4.6-6.52,4.6-6.52s-.42,5.91,1.34,7.15c3-6,5.88-3.54,7.26-1.51,1.68.2,13.14-1.33,13.14-1.33s.44-3.28,4.43-6.88c4.68-4.18,9.66-7.59,10.9-10a8.19,8.19,0,0,0,.58-5.82c-.65-.77-1.41-1.64-2.13-2.6" transform="translate(-322 -250.44)"/><path class="cls-4" d="M501.82,501.91s1.1-3,5.92-5.5c-6.65-3.28-15.85-10.2-17.1-10.77-.57,12.57,11.18,16.27,11.18,16.27" transform="translate(-322 -250.44)"/><path class="cls-4" d="M456.08,502a76.72,76.72,0,0,0-7.84,25.47c3.59-.24,5.5.2,10.59,0,3.52-1.27,3.75-10,8.23-13.9-2.81-7.9-3.66-17.88-5-21.87-1.7,1.95-5.94,10.3-5.94,10.3" transform="translate(-322 -250.44)"/><path class="cls-4" d="M594.28,426.44a.55.55,0,0,0,.17-.17,25.59,25.59,0,0,1-4.19,3.55c3.51.81,2.6,5.6,2.44,6.3,1.43-1.07,4.27-3.05,5.58-5.48s-2.89-4.84-4-4.2" transform="translate(-322 -250.44)"/><path class="cls-4" d="M562.26,435c-5.15-.7-8.32-1.2-12.07-2.68,7.4,3.34,8.81,9.65,10.71,12.42.12.24,7-.13,8.81-.38C569,438,562.43,435,562.26,435" transform="translate(-322 -250.44)"/><path class="cls-4" d="M583.64,433.17a40.23,40.23,0,0,1-10.9,2.36c2.85,3,3.58,7.62,3.58,7.62a46.22,46.22,0,0,0,9.62-3.27c.5-2.3-.91-5.18-2.38-6.67l.08,0" transform="translate(-322 -250.44)"/><path class="cls-4" d="M604.68,393.05a21.62,21.62,0,0,0-3-3.45c.42,2-1.55,4.89-3.78,6.17a14.84,14.84,0,0,1,1.79,2.65c1.48.4,5.77-2.36,5-5.37" transform="translate(-322 -250.44)"/><path class="cls-4" d="M486.33,385.4c11.15,14.21,8.08,29,14.51,36.15,3.72-13,2.59-15.59-3.1-25-2.23-2-8-7.45-11.41-11.13" transform="translate(-322 -250.44)"/><path class="cls-4" d="M571.15,499.51c-17.16-12-9.35-34.08-11.74-41v0a65.21,65.21,0,0,0-3.68-9.57c-.9-1.5-6.49-11.46-13-16.61,19.28,22.79,4.35,40.8,16.76,56.93-21.68-17.39-3.11-28.18-15.47-48.43.91,9.5-1.58,22.11-2.94,22.82-5.22-10.82,2.81-24.88-6.41-39.58a31.18,31.18,0,0,0-2.43-3.38c-3.79-3.19-7.5-6.51-10.6-9.06,20.11,17.35,6.64,38.06,7,53.82-5.08-11.61,5.2-37.53-11-56.88-3.84-2.64-8.88-6.08-13.68-9.41,24.82,19.36,15.05,41.26,14.54,65.67-7.81-12.07.46-43.77-10.21-52.79,1.12,11.28-5.65,33.84-3.4,46.84-6.47-11.46-4-26.57-14.31-42.1-8.38-12.67-2.46-27.54-15.14-39.89-1.56,3.8,3.54,10,3.08,21.84-3.08-5.37-5.56-7.34-6.48-13.6-.35-2.24-.5-5.35-.64-7.9-.14-3.42,0-8.15-5.26-15-.73-.51-1.39-.95-2-1.43-2.63-1.9-2.63-3.47-2.65-3.51-1.47,7.83,5.66,20.38,4.95,30.55-1.69-2.86-3.62-6.29-6.71-8.61a24.33,24.33,0,0,1,1.42,5c5.95,15.94,4.6,24.49,1.22,31.38-5.3,10.85-21.4,7.07-29.41,38.45,14.5-24.74,30-14.79,33.85-33.48,1.26,24.15-17,19-30.62,34.37,2.88,3.81,1.45,10.75-2.15,20a30.22,30.22,0,0,1,7.37-5c4.18-1.94,11.94,13.16,13.64,23.3,2.32-4.23,7.7-7.4,13.06-17.13-.13-2.27-9.11-20.48-22.4-14.78,14.19-16.19,22.36,3.54,25.36,10,0,0,7.57-13.26,9.58-20.61-1.36-7.61-3-9.25-2.95-23.27,3.18-9.1-1-16.88-3.4-27.1,6.83,10.28,10.09,19.67,9.74,27.1s-1.51,17.32.63,20.94c3.54-3.79,6.77-7.85,7.45-17,4.18,17.28-4.21,19.8-8.53,29.59-1.78,3.55-4.17,7.64-4.77,9.77,3.4.28,7.8,4.27,7.8,4.27l-.37-8.25s.27.33.65.84V467c4.5,3.65,6.21,3.94,8.76,4.21-1.71-4.21-.85-5.42-.56-8.53,3.95,5.09,7,8,10.71,9.1-4-5.74-4.24-9.91-4.23-10.44,0-.14,8.15,10,21.75,14.15a23.42,23.42,0,0,1,1.51-9.08c.15,5.62,3.35,18.78,9.85,24.16,5.06,5.7,16.11,12.87,22.47,15.72C553,498.86,534.45,493.1,536.6,472c8.86,21,29.11,29.51,33.25,35,1.25-1,2.5-2,3.7-3a17,17,0,0,0-2.4-4.44" transform="translate(-322 -250.44)"/><path class="cls-4" d="M400.89,329.17c-8.18,7.76-4.5,21.06-3.76,22.64,2.74-6,8.37-3.38,6.45,3-2.75,10.6-6.73,22.24-5.51,32.82-3.1,5.93-3.31,23.3-2.12,31.74,2.47,17.45,11.32,28.67,19.76,34.71,1.85,1.28,6.74,7.58,8.39,13.56.85-2.8,2.29-5.16,2-7.08-2.45-18.51-17.51-10.7-23.2-36.11,8.17,11.56,19.26,14.44,22.66,23.54-4.78-26.21-26.19-15.3-23.55-48.18a46.22,46.22,0,0,1,1.71-20.85,71.36,71.36,0,0,1,3.6-21.6,16.27,16.27,0,0,0,6.84,4.12.46.46,0,0,0,.07-.14c-5.66-4.84-9.63-14.06-8.71-21.85a8.75,8.75,0,0,0-3.82,3.13c-.46-2.52,1-13.83,16.37-16.37-5.08,3.11-8.8,8.06-9.14,12.64a11.28,11.28,0,0,1,5.3-3.39,14.39,14.39,0,0,0,.12,12.07c.76-1.29,1.73-3,3.57-3,0,10.71,7.18,5.85,13,20.25a27,27,0,0,0,.1-5.55,22.08,22.08,0,0,1-2.16-10.19c.27-2.83.58-6,1.43-7.06-4.28-.14-5.34,4.73-4.62,8.13-9.62-11.44-1.61-16.33-1.61-16.33-.56-4.77,2.24-9.75,9.77-9.08,0,0-.08,0-.1,0a8.41,8.41,0,0,1,3.51.85,1.77,1.77,0,0,0-.16-.19s1.18-.05,1.26-.08c.53-.35,2.53-1.56,3.88-1.21,1.58.34,2.83,1.5,4.52,1s2.15-.71,3.6-.22a2.86,2.86,0,0,1,1.75,1.66c10.31-2.33,14.19,14.38,4.22,29.33a15,15,0,0,0,4.39-4.12c-.27.23-.51.46-.76.65,3.62-6.49,4.57-12.26,3.15-16.57a14,14,0,0,1,3.19,1s.36-3.05-4.27-7.4c6.87,1.47,8.24,6.51,8.05,10.84a19.54,19.54,0,0,0-.05-8.49c-2.55-5-5-5.42-7-5.6-3.28-.33-7.55,1-13.2-4.85l.09,0a9.86,9.86,0,0,1-2.55-3.35,10.43,10.43,0,0,0,1.17-1.08c1.12-2.28-.41-8.13-5.73-10.44,5.14.81,7.37,2.52,8.08,4.36a7.89,7.89,0,0,1,8,3.67c-.93-2.44-4.2-5-6.66-5.84a21.36,21.36,0,0,1,6.53,1.75,16.12,16.12,0,0,1,6.69,4.21,16.18,16.18,0,0,0-1-10.23,3.57,3.57,0,0,0-.6.16c-3,1.08-7.12,2.69-8.82,2.84,0,0-5.37-4.66-17-3.88-8.05-1.27-16.4-.59-19.43,1.42-1.22-.63-2.29-1.22-3.3-1.83-.79-.48-1.65-1-2.56-1.61-2.05-1.22-4.17-2.32-5.87-2.22a2,2,0,0,0-2,.77c-1.87,4.3-.09,11.31.47,13.06a48.69,48.69,0,0,0-7.05,7.66.27.27,0,0,0-.05.13c-.06,0-.1.1-.16.15-2.06,2.9-3.61,6-3.34,8.62,3.41-2,6.14-.7,6.07-.55m45-12.71a7.55,7.55,0,0,0-3-5.2c3.95,0,4.51,3.95,3,5.2m-7.06-5.62a6.51,6.51,0,0,0-3.51,5.21c-1.27-1.27-2.55-4.94,3.51-5.21m-23.74,4.25s-6.46-5.54,9.51-7.79c-7.34,3.1-6.45,6.1-5.9,7a1.92,1.92,0,0,0,.52.58c-3.47-3.57,5.09-7.34,9.58-5.62.35-1.57,2.12-2.94,6.72-3.32-5.25,2.66-4.33,7.78-3.39,9.8a17.9,17.9,0,0,0,2.06,1.76,7.41,7.41,0,0,1-1.9,3.05c-5.11,7.57-19.88-3.53-26.87,8,1.43-11.4,9.67-13.42,9.67-13.42" transform="translate(-322 -250.44)"/><path class="cls-4" d="M601.3,409.4a39.48,39.48,0,0,1-1,6.48c3-2.88,5.13.27,6.54-.55,2-1.71-.23-4.91-5.51-5.93" transform="translate(-322 -250.44)"/><path class="cls-5" d="M532.22,420.71h0s0,0,0,0,0,0,0,0" transform="translate(-322 -250.44)"/><path class="cls-5" d="M532.26,420.75c.07.1.18.21.26.31-.08-.1-.19-.21-.26-.31" transform="translate(-322 -250.44)"/><path class="cls-5" d="M532.52,421.07l.38.47-.38-.47" transform="translate(-322 -250.44)"/><path class="cls-5" d="M600,398.47a.94.94,0,0,1-.3-.05.94.94,0,0,0,.3.05" transform="translate(-322 -250.44)"/><path class="cls-5" d="M600.73,398.31h0Z" transform="translate(-322 -250.44)"/><path class="cls-5" d="M527.39,460.25a.28.28,0,0,1,0,.08.28.28,0,0,0,0-.08" transform="translate(-322 -250.44)"/><path class="cls-5" d="M600.26,398.42a1,1,0,0,1-.29.05,1,1,0,0,0,.29-.05" transform="translate(-322 -250.44)"/><path class="cls-5" d="M600.71,398.32l-.37.1.37-.1" transform="translate(-322 -250.44)"/><path class="cls-5" d="M600.34,398.42h0Z" transform="translate(-322 -250.44)"/><path class="cls-5" d="M572.76,435.53h0Z" transform="translate(-322 -250.44)"/><path class="cls-5" d="M548.62,297.21c-1-.51-2-1-3-1.46,1,.49,2,.95,3,1.46" transform="translate(-322 -250.44)"/><path class="cls-5" d="M545.65,295.75l-1.35-.63,1.35.63" transform="translate(-322 -250.44)"/><path class="cls-5" d="M544.3,295.12c-1.45-.67-2.91-1.31-4.41-1.94,1.5.63,3,1.27,4.41,1.94" transform="translate(-322 -250.44)"/><path class="cls-5" d="M527.41,460.33c0,.36.08.69.12,1,0-.33-.1-.66-.12-1" transform="translate(-322 -250.44)"/><path class="cls-5" d="M549,297.39c17.4,10.11,33.86,29.34,27.6,68.47-.1,1.14-.24,2.32-.41,3.47-4.17-8.23-5.82-11.25-10.6-19.52.88-4.7,1.61-9.87-1.75-18.24a27.37,27.37,0,0,1-2.52,11.5c-2.55-3.81-4.11-5.75-6.57-9,0-4.55-.42-14.78-4.32-23.69,1,6.31-.59,13.24-2,16a83.62,83.62,0,0,0-12.07-11.84,1.91,1.91,0,0,1,.3.22,63.47,63.47,0,0,1,6.17,15.37,89.08,89.08,0,0,1-4.73,56.11h0a.38.38,0,0,0-.07.22l0,0a2.24,2.24,0,0,1-.16.27s.05-.13.13-.4c-1.53-5.44-5.28-16.08-7-20.69,2.38-7.31,4-14.86,3.1-20.6-1.47,6.69-4.1,9.33-6.3,11.42-4.66-11.42-6.46-15.47-8-18.87,2.23-4.12,4.5-13.32,2.93-21.35-1.42,5.51-4.89,10.62-6.85,13.34-3-6.06-8.1-15.16-13-19.82-6.77,33.31-2.69,74.91-.51,88.3.53.39,1.06.79,1.55,1.19v0c4.8,3.32,9.84,6.78,13.68,9.41,14.14,16.84,8.18,38.63,9.76,51.67-1.58-13.06,4.39-34.88-9.84-51.73a43.34,43.34,0,0,1,4.07,3.11c3.1,2.56,6.81,5.88,10.6,9.08,0,0,0,0,0,0,4.18,3.12,12.53,9.61,16.49,11,.5.18,1,.38,1.51.59h0c3.75,1.47,6.93,2,12.07,2.68l0,0s6.37,1.08,10.48.56c0,0,0,0,0,0a40.15,40.15,0,0,0,10.9-2.36,31.92,31.92,0,0,0,6.62-3.35,27,27,0,0,0,4.2-3.54.83.83,0,0,1-.18.16,25.15,25.15,0,0,0,6-10.56,39.25,39.25,0,0,0,1-6.47c.14-2.87.35-7.37-1.67-11h0a15.05,15.05,0,0,0-1.8-2.65h0a.07.07,0,0,0,0,0,10.92,10.92,0,0,0-6.72-3.64h0a9.46,9.46,0,0,0-3.38.23v0a11.41,11.41,0,0,0-6.19,4.77c-.88,1.46-1.41,2.6-2,3.59-1.48,2.59-4.31,1.68-3.86-1.61A18,18,0,0,1,578,393.8a15.17,15.17,0,0,1,10.4-7.69l0,0a16.37,16.37,0,0,1,4.16-.38h0c2,0,5.27.51,9,3.83v0a20.73,20.73,0,0,1,3.06,3.45c.59,2.44-2.12,4.71-3.95,5.27,1.84-.56,4.57-2.85,3.95-5.32a26.16,26.16,0,0,1,3.37,7.08,23.79,23.79,0,0,1,1,8.24,3.74,3.74,0,0,1,0,.49c0-.43,0-.83,0-1.25a54.25,54.25,0,0,1-2.25,13.57.17.17,0,0,1-.07,0,26.28,26.28,0,0,1-1.34,3.24,24.74,24.74,0,0,1-2.5,4.84,37,37,0,0,1-20.1,15.54,79.43,79.43,0,0,1-27,4.25,61.78,61.78,0,0,1,3.69,9.56v0c7.74,16.43,2,24.18,11.73,41a16.87,16.87,0,0,1,2.41,4.44c27.5-23,45-57.06,45-95.16,0-48.48-28.29-90.52-69.52-111.4" transform="translate(-322 -250.44)"/><path class="cls-5" d="M548.62,297.21a3.7,3.7,0,0,1,.4.18l-.15-.09a.73.73,0,0,0-.25-.09" transform="translate(-322 -250.44)"/><path class="cls-5" d="M527.84,462.91c.1.41.21.8.33,1.18-.12-.38-.23-.77-.33-1.18" transform="translate(-322 -250.44)"/><path class="cls-5" d="M527.6,461.66a5.2,5.2,0,0,0,.17.84,5.2,5.2,0,0,1-.17-.84" transform="translate(-322 -250.44)"/><path class="cls-5" d="M527.53,461.35c0,.11.05.2.07.31,0-.11,0-.2-.07-.31" transform="translate(-322 -250.44)"/><path class="cls-5" d="M527.77,462.5a3.07,3.07,0,0,0,.07.42,3.07,3.07,0,0,1-.07-.42" transform="translate(-322 -250.44)"/><path class="cls-5" d="M470.25,318.16s-.07-.11-.14-.18a33.26,33.26,0,0,1,5.45,16.8,9.65,9.65,0,0,0-3.77-1.24s6.27,10.53-3.72,22.94c.54-5-5.16-5.12-6.34-2.57a6.82,6.82,0,0,0-.32,3.69,2.93,2.93,0,0,1,0-.29s0,1.61,2.65,3.51c.62.48,1.29.92,2,1.42a.07.07,0,0,1,0-.06c6.36,2.55,8.48,7.36,12.16,13.59,1.37,2.36,4.24,5,5,6.09.49.48.91.94,1.34,1.42,0-2.12.2-49.92-1.95-73.16a30.89,30.89,0,0,0-12.39,8" transform="translate(-322 -250.44)"/><path class="cls-5" d="M542.82,506.39c-.23-.13-.44-.26-.67-.37-.83-.49-1.87-1.2-2.94-2-3.22-2.39-6.92-5.57-7.76-6.21a36.07,36.07,0,0,1-3.35-3.07,1.33,1.33,0,0,0-.26.21.05.05,0,0,0-.05.05,1.31,1.31,0,0,0-.27.26l0,.05a2.74,2.74,0,0,0-.66,2.77c.12.2.22.39.33.59a2.79,2.79,0,0,0,.2.24h-.06c.28.48.59,1,.9,1.46a2.08,2.08,0,0,0,.24.34c.31.47.62.92,1,1.35v0c.62.85,1.23,1.64,1.86,2.4l0,.07c.34.43.68.86,1,1.26,0,0,0,.07.09.11q.51.63,1,1.17a.4.4,0,0,1,0-.16s1,.1,2.35,2.72c1.45,3-.31,6.21-3.14,9-.11.13-.22.26-.37.42a109.94,109.94,0,0,0-7.47,10.37,129.79,129.79,0,0,0,28.85-11.79c1.19-2.7-.43-5.54-1.8-6.89-1.56-1.59-5.65-2.71-8.93-4.43" transform="translate(-322 -250.44)"/><path class="cls-5" d="M361.37,408.79a121.83,121.83,0,0,1,14.44-57.66c-19.19,66.06,3.06,108.68,38.55,142.93,0,0-1.74,7.19-5.8,11.67-28.76-23-47.19-57.85-47.19-96.94" transform="translate(-322 -250.44)"/><path class="cls-5" d="M572.6,614.26c-19.2-2.46-37.13,13.17-40,34.88a44.07,44.07,0,0,0-.39,5.84,41,41,0,0,0,7.64,24.17,33,33,0,0,0,22.55,13.78c15.76,2,31.14-8.27,37.41-25l.36-.93L589.1,662l-.41.85c-4.63,9.62-11.2,14.11-19.53,13.4a13.42,13.42,0,0,1-12.33-11.61c1.21-.49,32.87-15.12,43.55-20.06-1.9-15.59-13.69-28.56-27.78-30.36m-20.35,39a12.27,12.27,0,0,0,.18-1.8s-.18-3.94-.18-4c0-9.73,3.43-16.17,9.63-18.12,7.45-2.36,14.07,3.92,17,10.75,0,0,0-.87-.16.67ZM423.71,611.73c.3-28.64,31.86-33.78,39.23-29.48l-7.19,20.9c-6.81-3.22-23.37,1.33-32,8.58m-17,22.73v-4.11l34.44-15.85V665c0,15.86,6,20.61,13.49,21.8v4.38H406.36v-4.38c8.13-1.19,13.16-5.94,13.16-21.8V649c0-9.05-6.41-13.91-12.8-14.52M489,614.56l.5,0h-.54c-20.75,0-37.55,16.33-37.55,36.48a36.14,36.14,0,0,0,15.75,29.72c-2.37,1.26-1.94,4.1-1.88,4.53,1.24,7.78,17.41,10.48,25.43,12.77,3.19.91,18.81,4.86,18.81,17.3,0,19.44-32.31,23.29-41.16,5.39-2.45-4.95-2.27-16.45,6.36-19.21-29-16.08-36.54,17-23.27,30.41,21.82,22,82.05,17.18,82.05-19.4,0-13-13.19-26.71-31-26.71a4.38,4.38,0,0,1-1.45-.26,36.54,36.54,0,0,0,25.41-34.54c0-17.51-12.71-32.14-29.65-35.66,3.57-6.6,21.64-17.43,42.67-6.92a36.14,36.14,0,0,1,4.55,2.88l10-29.23c-22.63-9.63-58.67,3.46-65,32.42m-.33,61.34c-7,0-12.79-10.51-12.79-23.47S481.59,629,488.63,629s12.83,10.49,12.83,23.43-5.74,23.47-12.83,23.47m-74.92-59.25-3.82,1.26c-2.09-5.07-13.83-13.23-25.37-13.23-2.87,0-3.75.09-5,1.38V665c0,15.86,8,20.61,16.12,21.8v4.38H340.12v-4.38c8.1-1.19,16.1-5.94,16.1-21.8V606.13c-1.28-1.28-2.16-1.4-5-1.4-11.55,0-23.3,8.17-25.39,13.23L322,616.71l6.32-29.94h79.36ZM638,640.07V665c0,15.86,6,20.61,13.49,21.8v4.38H603.24v-4.38c8.09-1.19,13.13-5.94,13.13-21.8V649c0-9.05-6.38-13.91-12.8-14.52v-4.11L638,614.5v13.37c9.26-12.49,28.91-15.67,35.36-10.2l-9.3,27.1c-7.94-7.21-19.15-8.89-26.06-4.7" transform="translate(-322 -250.44)"/><path class="cls-4" d="M562.76,632c-6.64,2.08-7.66,10.52-7.67,15.38v.05c.69-.29,1.14-.55,2-1,.56-7.48,4-11.48,8.91-13a8.7,8.7,0,0,1,4.41.07,8.39,8.39,0,0,0-7.68-1.54" transform="translate(-322 -250.44)"/><path class="cls-4" d="M562.06,695.74a36.18,36.18,0,0,1-4.27-.83,31.59,31.59,0,0,0,9.38,2.34c14.55,1.91,30.86-8.53,37.12-25.26l-2-2.4c-6.92,17.56-23.34,28.3-40.21,26.15" transform="translate(-322 -250.44)"/><path class="cls-4" d="M605.39,650.2v0c.09,0,.08,0,0,0" transform="translate(-322 -250.44)"/><path class="cls-4" d="M605.43,648.89c-.61-11.28-4.17-17.5-8.38-22.21A40.07,40.07,0,0,1,603,644l.27,2.89s-38.64,17.67-42.9,19.46a7,7,0,0,0,1.29,2.43Z" transform="translate(-322 -250.44)"/><path class="cls-4" d="M386.46,678.77a13.2,13.2,0,0,1-2.18-7.86V611c1.27-1.28,2.16-1.41,5-1.41a13,13,0,0,1,3.76.16c-2.43-1.47-4.81-2-8.53-2a14.64,14.64,0,0,0-2.16.08v58.34c0,7,1.49,10.76,4.09,12.59" transform="translate(-322 -250.44)"/><polygon class="cls-4" points="76.5 443.53 20.98 443.53 22.88 445.41 78.41 445.41 78.41 438.93 76.5 437 76.5 443.53"/><polygon class="cls-4" points="137.65 357.44 144.83 336.56 143.18 334.04 135.81 355.11 137.65 357.44"/><path class="cls-4" d="M425.64,613.82l2,2.2c6.7-5.6,19-9.84,27.12-9.87-7.49-3.08-21,1-29.08,7.67" transform="translate(-322 -250.44)"/><path class="cls-4" d="M488.39,631.78c-7.24,0-9.81,11.12-9.81,20.63,0,5.89,1,11.79,3.13,15.76a59.42,59.42,0,0,1-1.59-12.39c0-12.79,3.69-22.93,12.71-22.09a6.28,6.28,0,0,0-4.44-1.91" transform="translate(-322 -250.44)"/><path class="cls-4" d="M488.39,700.65l-4.2-1.09c-4.58-1.19-10-2.56-14.46-4.68,5.84,4.88,17.77,8,23.91,9.78,1.16.33,4.07.81,7.27,1.88-2.72-2.34-6.76-4.3-12.13-5.78Z" transform="translate(-322 -250.44)"/><path class="cls-4" d="M556.22,584.37,546,614.26a32.61,32.61,0,0,1,2.74,1.85l10-29.24Z" transform="translate(-322 -250.44)"/><path class="cls-4" d="M501.68,613.92a28.43,28.43,0,0,1,2.89,1.22c6.42-5.22,18.58-8.48,31.9-4.86-15.72-7-29.15-1.47-34.79,3.64" transform="translate(-322 -250.44)"/><path class="cls-4" d="M529.26,651.07A37.9,37.9,0,0,1,509.89,684a17.37,17.37,0,0,1,2.93.84c10.36-6.21,18.06-17.09,18.06-29.51,0-10.62-2.31-17.63-6.74-23.08a37.58,37.58,0,0,1,5.12,18.86" transform="translate(-322 -250.44)"/><path class="cls-4" d="M640.86,622.31c.66-.68,1.3-1.28,1.93-1.86v-1.18l-1.93-1.93Z" transform="translate(-322 -250.44)"/><path class="cls-4" d="M675.5,619.77,666,647.91c.9,1,1.71,1.91,2.45,2.8L678,622.26Z" transform="translate(-322 -250.44)"/><polygon class="cls-4" points="332.37 443.53 284.09 443.53 285.99 445.41 334.3 445.41 334.3 438.97 332.37 437.05 332.37 443.53"/><path class="cls-4" d="M471.89,721.28c-.73-5.52.89-12.82,7.56-15a41.23,41.23,0,0,0-4-2,7.39,7.39,0,0,0-4.59,4.43,14.2,14.2,0,0,0,.06,10.72,13.31,13.31,0,0,0,1,1.77" transform="translate(-322 -250.44)"/><path class="cls-4" d="M536.3,712.58c0,13.95-8,24.94-22.69,31-13.71,5.64-30.38,5.91-44.33,1.68,26.56,11.13,68.18.46,69-27.92a21.55,21.55,0,0,0-2.62-10.15,22.78,22.78,0,0,1,.67,5.42" transform="translate(-322 -250.44)"/><path class="cls-4" d="M353.36,607.68a14.06,14.06,0,0,0-2.15-.09c-10.43,0-21.35,6.13-23.74,13.91l-4-1.2,1.19,2.47,4.9,1.51c2.83-10.3,14.69-14.27,23.84-14.65Z" transform="translate(-322 -250.44)"/><polygon class="cls-4" points="90.96 372.05 97.3 369.7 91.71 343.71 89.19 339.66 95.02 368.16 89.52 370.01 90.96 372.05"/><path class="cls-4" d="M640.86,642v23c0,6.69,1.12,11,2.83,13.8a41.78,41.78,0,0,1-.9-9.06V644.82c3.75-2.27,8.76-2.81,13.84-1.69-5.34-2.61-11.33-3.15-15.77-1.16" transform="translate(-322 -250.44)"/><polygon class="cls-4" points="135.52 443.53 87.24 443.53 89.15 445.41 137.43 445.41 137.43 438.97 135.52 437.05 135.52 443.53"/><path class="cls-4" d="M446.8,678.76a42.09,42.09,0,0,1-.88-9.08V644.81h0V619.27l-1.9-1.93V665c0,6.69,1.1,11,2.78,13.81" transform="translate(-322 -250.44)"/></svg>